<svg width="30" height="30" fill="none" xmlns="http://www.w3.org/2000/svg"><path d="M15 30a15 15 0 1 1 0-30 15 15 0 0 1 0 30Zm0-27.5a12.5 12.5 0 1 0 0 25 12.5 12.5 0 0 0 0-25Z" fill="#000"/><path d="M5.3 26a1.2 1.2 0 0 1-.9-2.2L23.8 4.4a1.2 1.2 0 1 1 1.8 1.8L6.2 25.6c-.3.2-.6.4-1 .4ZM16.5 17l-4.1 4.1a3 3 0 1 0 4-4ZM9.7 16.7l.4-.4 4.3-4.3A9.9 9.9 0 0 0 8 15a1.3 1.3 0 0 0 1.7 1.7ZM20.1 13.4l-1.8 1.9c.7.3 1.4.8 2 1.4a1.2 1.2 0 0 0 1.7 0c.5-.5.5-1.3 0-1.8a10 10 0 0 0-1.9-1.5ZM23.5 10 21.7 12l1.9 1.5a1.2 1.2 0 0 0 1.7 0c.5-.5.5-1.3 0-1.8l-1.8-1.5ZM6.4 13.4a12 12 0 0 1 10.1-3.5l2.2-2a14.6 14.6 0 0 0-14 3.7 1.2 1.2 0 1 0 1.7 1.8Z" fill="#000"/></svg>